<svg width="23" height="22" viewBox="0 0 23 22" fill="none" xmlns="http://www.w3.org/2000/svg">
<path d="M20.3594 0.75H2.64062C1.60774 0.75 0.75 1.54979 0.75 2.5625V19.4375C0.75 20.4502 1.60774 21.25 2.64062 21.25H20.3594C21.3923 21.25 22.25 20.4502 22.25 19.4375V2.5625C22.25 1.54979 21.3923 0.75 20.3594 0.75ZM20.5195 19.4375C20.5195 19.5029 20.4585 19.5781 20.3594 19.5781H2.64062C2.54148 19.5781 2.48047 19.5029 2.48047 19.4375V2.5625C2.48047 2.49708 2.54148 2.42188 2.64062 2.42188H20.3594C20.4585 2.42188 20.5195 2.49708 20.5195 2.5625V19.4375Z" fill="white" stroke="white" stroke-width="0.5" stroke-linejoin="round"/>
<path d="M7 8.75H6.75V9V15V15.25H7H8H8.25V15V9V8.75H8H7Z" fill="white" stroke="white" stroke-width="0.5"/>
<path d="M9.75 14.9986L10 15L9.75 14.9987L9.74867 15.25H10H12.3209H12.5709V15V11.7878C12.5709 11.764 12.5708 11.7415 12.5707 11.72C12.5704 11.6517 12.5701 11.5941 12.5735 11.5386C12.578 11.4663 12.5879 11.4261 12.5979 11.4043L12.5979 11.4043L12.5994 11.4009C12.7282 11.1082 12.996 10.8207 13.4876 10.8207C13.8291 10.8207 14.0444 10.9341 14.1808 11.1035C14.3243 11.2816 14.4084 11.5566 14.4084 11.9256V15V15.25H14.6584H17H17.25V15V11.6948C17.25 10.7214 16.9439 9.97634 16.4128 9.47592C15.8844 8.97812 15.1626 8.75 14.3812 8.75C13.7486 8.75 13.2253 8.90529 12.8363 9.12345C12.741 9.1769 12.6521 9.23513 12.5709 9.29688V9.05583V8.80583H12.3209H10H9.73495L9.75043 9.07043C9.76432 9.30793 9.7645 10.7817 9.76086 12.2129C9.75905 12.9248 9.75634 13.6212 9.75407 14.1397L9.75119 14.7637L9.75032 14.9374L9.75009 14.983L9.75002 14.9947L9.75001 14.9977L9.75 14.9984L9.75 14.9986Z" fill="white" stroke="white" stroke-width="0.5"/>
<path d="M9.24996 6.99777L9.25004 6.99777L9.24982 6.99133C9.23688 6.61852 9.04506 6.29936 8.73211 6.08106C8.4235 5.86579 8.00202 5.75 7.50989 5.75C7.0181 5.75 6.58812 5.8656 6.27308 6.07917C5.95421 6.29533 5.75 6.61696 5.75 7C5.75 7.375 5.94661 7.69615 6.25808 7.91454C6.56641 8.13072 6.98879 8.25 7.47523 8.25H7.49503C7.99736 8.25 8.42827 8.13048 8.74074 7.91398C9.05673 7.69504 9.2533 7.37276 9.24996 6.99777Z" fill="white" stroke="white" stroke-width="0.5"/>
</svg>
