<svg width="130" height="29" viewBox="0 0 130 29" fill="none" xmlns="http://www.w3.org/2000/svg">
<path d="M2.11967 17.733L2.71626 14.1875L15.8924 9.00568L15.2532 12.8835L6.61115 15.9261L6.76456 15.7386L6.67081 16.1903L6.57706 15.9943L14.239 19.0455L13.5913 22.9148L2.11967 17.733Z" fill="white"/>
<path d="M114.789 4.72727L105.721 25.625H102.167L111.235 4.72727H114.789ZM127.362 17.733L114.152 22.9148L114.8 19.0455L123.433 15.9943L123.288 16.1903L123.374 15.7386L123.467 15.9261L115.814 12.8835L116.453 9.00568L127.959 14.1875L127.362 17.733Z" fill="white"/>
<path d="M35.104 5.54545L32.2063 23H28.6268L23.3683 12.9261H23.2489L21.57 23H17.3512L20.2489 5.54545H23.8796L29.0955 15.6023H29.2404L30.8938 5.54545H35.104ZM34.859 23L37.7567 5.54545H41.9755L40.7567 12.9261H40.9869L47.9755 5.54545H52.9442L45.4869 13.3352L50.1573 23H45.1119L41.9414 16.1392L39.8619 18.2955L39.0778 23H34.859ZM51.7106 23L54.6083 5.54545H66.7788L66.1992 8.97159H58.2475L57.668 12.5511H64.9975L64.418 15.9858H57.0884L56.5089 19.5739H64.4606L63.881 23H51.7106ZM68.9947 23.2472C68.3754 23.2472 67.8697 23.0312 67.4776 22.5994C67.0856 22.1676 66.9151 21.6449 66.9663 21.0312C67.0231 20.429 67.2901 19.9148 67.7674 19.4886C68.2447 19.0625 68.7901 18.8494 69.4038 18.8494C69.989 18.8494 70.4805 19.0625 70.8782 19.4886C71.2816 19.9148 71.4549 20.429 71.3981 21.0312C71.364 21.4403 71.2248 21.8125 70.9805 22.1477C70.7418 22.483 70.4464 22.75 70.0941 22.9489C69.7418 23.1477 69.3754 23.2472 68.9947 23.2472Z" fill="white"/>
<path d="M73.043 27.9091L76.06 9.90909H80.185L79.8185 12.1506H79.9464C80.1737 11.7528 80.4748 11.3693 80.8498 11C81.2305 10.6307 81.6879 10.3295 82.2219 10.0966C82.756 9.85795 83.3668 9.73864 84.0543 9.73864C84.9634 9.73864 85.7731 9.97727 86.4833 10.4545C87.1935 10.9318 87.7106 11.6676 88.0344 12.6619C88.3583 13.6562 88.3924 14.9233 88.1367 16.4631C87.8924 17.946 87.4492 19.1875 86.8072 20.1875C86.1708 21.1875 85.4151 21.9375 84.5401 22.4375C83.6651 22.9375 82.7475 23.1875 81.7873 23.1875C81.1282 23.1875 80.5714 23.0795 80.1168 22.8636C79.668 22.6477 79.3129 22.3636 79.0515 22.0114C78.7901 21.6591 78.6083 21.2812 78.506 20.8778H78.3867L77.2276 27.9091H73.043ZM79.0515 16.4545C78.9379 17.1591 78.9322 17.7727 79.0344 18.2955C79.1367 18.8182 79.3441 19.2244 79.6566 19.5142C79.9748 19.7983 80.3867 19.9403 80.8924 19.9403C81.4038 19.9403 81.8583 19.7983 82.256 19.5142C82.6594 19.2244 82.9975 18.8182 83.2702 18.2955C83.543 17.7727 83.7418 17.1591 83.8668 16.4545C83.9748 15.75 83.9776 15.1392 83.8754 14.6222C83.7788 14.1051 83.5771 13.7045 83.2702 13.4205C82.9634 13.1364 82.5515 12.9943 82.0344 12.9943C81.5288 12.9943 81.0685 13.1335 80.6538 13.4119C80.2447 13.6903 79.9038 14.0881 79.631 14.6051C79.3583 15.1222 79.1651 15.7386 79.0515 16.4545ZM90.5593 27.9091C90.0593 27.9091 89.5934 27.8693 89.1616 27.7898C88.7354 27.7159 88.3718 27.6165 88.0707 27.4915L89.5025 24.4659C89.8832 24.6023 90.2326 24.679 90.5508 24.696C90.8746 24.7188 91.1644 24.6648 91.4201 24.5341C91.6815 24.4091 91.9087 24.1847 92.1019 23.8608L92.3406 23.4602L89.9457 9.90909H94.1559L95.0082 19.2585H95.1445L99.1502 9.90909H103.693L96.3888 24.2528C96.0195 24.9688 95.5735 25.6023 95.0508 26.1534C94.5281 26.7045 93.8974 27.1335 93.1587 27.4403C92.4258 27.7528 91.5593 27.9091 90.5593 27.9091Z" fill="#E91209"/>
</svg>
