<svg width="142" height="73" viewBox="0 0 142 73" fill="none" xmlns="http://www.w3.org/2000/svg">
<path d="M2.41529 27.5177C2.42867 27.3972 2.44566 27.3121 2.53577 27.222C3.16809 26.5896 5.21865 25.3016 5.2738 25.2615C15.4168 17.8873 25.3824 10.0852 35.9727 3.35721C37.9521 2.09973 37.9945 1.91686 37.5279 3.20388C37.1195 4.33062 36.8041 4.96559 36.2027 6.13906C32.9098 12.5642 29.1557 18.7419 25.6558 25.0534C22.9435 29.9446 20.5605 34.9903 18.0002 39.9593C14.1106 47.5083 9.03442 54.37 5.4819 62.0827C5.23997 62.6079 4.99991 63.1341 4.75906 63.6598C4.38634 64.4734 4.35573 64.5172 4.71525 63.8131C6.87925 59.5753 9.07558 55.3563 11.177 51.0867C17.0966 39.0596 23.702 27.0146 34.527 18.7121C42.4648 12.6241 51.6281 8.82809 60.0236 3.53245C60.4795 3.2449 61.8142 2.33838 61.3379 2.59056C56.5557 5.12233 52.121 8.5792 47.7791 11.7685C38.1265 18.8586 29.2613 26.8123 20.8149 35.2937C18.8689 37.2478 16.9844 39.2302 15.4155 41.5036C15.1643 41.8675 14.4846 42.6343 14.4846 43.1464C14.4846 43.9823 16.1371 42.8365 16.916 42.5331C20.1368 41.2782 23.195 39.5849 26.4991 38.5465C29.4403 37.6221 31.5905 37.9131 33.2566 40.715C34.2313 42.3544 34.593 43.7245 35.1842 45.523C35.6271 46.8706 35.6773 48.6625 37.6155 48.8744C42.7977 49.4409 48.9844 45.0236 53.3209 42.9383C54.7812 42.2361 56.1825 41.3663 57.7346 40.9012C58.4032 40.7009 59.3499 40.4791 59.8265 40.9888C60.4678 41.6747 59.8245 46.8107 59.8265 46.9468C59.851 48.6273 59.8436 51.6118 62.1922 52.2476C65.5883 53.1671 70.8253 50.3839 73.1005 48.8306C78.854 44.9025 84.8517 38.3362 89.3316 33.2347C92.4026 29.7377 99.6184 20.7101 102.781 16.6093C104.29 14.6521 105.998 12.7888 107.074 10.5637C107.568 9.54332 105.601 12.2937 104.971 13.2361C103.128 15.995 99.8453 21.2769 98.3343 23.9035C96.927 26.3497 92.6251 34.0671 91.7411 37.0241C90.8652 39.9542 90.4821 43.8448 93.6249 45.8735C97.6034 48.4417 105.444 48.092 109.418 47.5382C115.832 46.6444 123.619 44.0028 129.548 41.3612C143.731 35.0422 129.698 40.6678 140.215 35.0089" stroke="#E91209" stroke-width="3" stroke-linecap="round"/>
<path d="M21.5378 42.1059C28.944 42.1059 37.1233 41.0809 44.2525 40.5288C70.1967 38.5199 96.1372 36.4617 122.079 34.4175" stroke="#E91209" stroke-width="3" stroke-linecap="round"/>
<path d="M16.0179 57.2856C18.3305 58.0033 18.5035 57.3887 22.6001 57.0228C54.1388 54.2052 85.6363 50.8967 117.15 47.8229" stroke="#E91209" stroke-width="3" stroke-linecap="round"/>
<path d="M38.2946 32.4461C41.7018 30.7424 46.4039 27.3889 50.2762 27.8791C56.2888 28.6402 52.5072 36.1637 51.6562 38.5465C49.5946 44.3189 45.1006 52.1515 42.2045 57.6909C41.6581 58.7358 39.0782 63.6032 38.3931 65.5874C37.4074 68.4427 40.1094 64.7984 40.5179 64.3169C48.4154 55.0082 55.5754 45.0212 62.9369 35.2937C67.7989 28.869 69.421 26.7016 73.7796 20.9464C74.3222 20.2298 74.8581 19.5081 75.4114 18.7998C75.5884 18.5732 75.893 17.8656 75.97 18.1426C76.072 18.5098 75.6809 18.8481 75.521 19.194C75.0967 20.1115 74.6634 21.0249 74.2176 21.9321C71.954 26.5386 68.205 33.9239 66.1349 38.0317C60.5422 49.1298 55.1104 60.2855 49.7286 71.4796" stroke="#E91209" stroke-width="3" stroke-linecap="round"/>
<path d="M76.6847 59.5399C76.6847 59.146 75.6985 58.5529 76.0933 59.5399" stroke="#E91209" stroke-width="3" stroke-linecap="round"/>
<path d="M88 59.3943L88.1971 59" stroke="#E91209" stroke-width="3" stroke-linecap="round"/>
<path d="M98 58V58.9857" stroke="#E91209" stroke-width="3" stroke-linecap="round"/>
</svg>
